<?xml version="1.0" encoding="utf-8"?>
<svg width="144" height="30" viewBox="0 0 144 30" fill="none" xmlns="http://www.w3.org/2000/svg">
  <g>
    <path fill-rule="evenodd" clip-rule="evenodd" d="M 0 22.992 L 0 14.775 L 8.474 14.775 L 8.474 22.992 L 0 22.992 Z M 8.474 14.775 L 8.474 6.558 L 16.947 6.558 L 16.947 14.775 L 8.474 14.775 Z" fill="black"/>
    <path d="M 21.215 29.916 L 21.215 6.698 L 24.499 6.698 L 24.499 10.439 L 23.995 10.158 C 24.124 9.534 24.48 8.939 25.069 8.367 C 25.659 7.795 26.381 7.327 27.232 6.966 C 28.082 6.605 28.966 6.422 29.869 6.422 C 31.366 6.422 32.692 6.788 33.852 7.514 C 35.012 8.241 35.924 9.239 36.599 10.505 C 37.274 11.77 37.611 13.228 37.611 14.869 C 37.611 16.509 37.278 17.939 36.618 19.214 C 35.953 20.494 35.045 21.502 33.885 22.238 C 32.725 22.973 31.419 23.344 29.969 23.344 C 29 23.344 28.063 23.152 27.156 22.767 C 26.248 22.383 25.483 21.891 24.851 21.286 C 24.219 20.686 23.829 20.063 23.682 19.416 L 24.504 18.98 L 24.504 29.916 L 21.215 29.916 Z M 29.432 20.381 C 30.402 20.381 31.267 20.142 32.022 19.664 C 32.783 19.186 33.381 18.53 33.823 17.7 C 34.265 16.87 34.489 15.923 34.489 14.864 C 34.489 13.805 34.275 12.863 33.842 12.042 C 33.41 11.222 32.816 10.575 32.055 10.097 C 31.295 9.619 30.421 9.38 29.432 9.38 C 28.444 9.38 27.569 9.614 26.809 10.083 C 26.048 10.552 25.45 11.198 25.008 12.033 C 24.566 12.863 24.342 13.809 24.342 14.869 C 24.342 15.928 24.566 16.875 25.008 17.705 C 25.45 18.534 26.048 19.191 26.809 19.669 C 27.569 20.147 28.439 20.386 29.432 20.386 L 29.432 20.381 Z" fill="black"/>
    <path d="M 39.669 23.063 L 39.669 6.698 L 42.953 6.698 L 42.953 11.841 L 42.639 10.594 C 42.872 9.806 43.267 9.089 43.823 8.442 C 44.379 7.8 45.025 7.289 45.752 6.914 C 46.479 6.539 47.23 6.352 48.01 6.352 C 48.366 6.352 48.708 6.384 49.036 6.445 C 49.364 6.506 49.621 6.581 49.811 6.666 L 48.955 10.158 C 48.703 10.055 48.423 9.966 48.119 9.895 C 47.815 9.825 47.515 9.788 47.221 9.788 C 46.65 9.788 46.109 9.895 45.595 10.116 C 45.077 10.336 44.626 10.636 44.236 11.02 C 43.846 11.405 43.537 11.85 43.305 12.361 C 43.072 12.872 42.958 13.425 42.958 14.03 L 42.958 23.067 L 39.674 23.067 L 39.669 23.063 Z" fill="black"/>
    <path d="M 57.89 23.372 C 56.269 23.372 54.82 23.002 53.546 22.266 C 52.273 21.53 51.265 20.522 50.528 19.242 C 49.792 17.963 49.421 16.505 49.421 14.864 C 49.421 13.223 49.787 11.766 50.528 10.486 C 51.265 9.206 52.273 8.198 53.546 7.463 C 54.82 6.727 56.269 6.356 57.89 6.356 C 59.511 6.356 60.927 6.727 62.2 7.463 C 63.474 8.198 64.482 9.206 65.218 10.486 C 65.955 11.766 66.326 13.223 66.326 14.864 C 66.326 16.505 65.955 17.967 65.218 19.242 C 64.482 20.522 63.474 21.53 62.2 22.266 C 60.927 23.002 59.487 23.372 57.89 23.372 Z M 57.89 20.442 C 58.878 20.442 59.762 20.198 60.542 19.711 C 61.321 19.223 61.934 18.558 62.376 17.719 C 62.818 16.88 63.027 15.928 63.008 14.869 C 63.027 13.791 62.818 12.83 62.376 11.986 C 61.934 11.147 61.321 10.486 60.542 10.008 C 59.762 9.53 58.878 9.291 57.89 9.291 C 56.901 9.291 56.008 9.534 55.219 10.022 C 54.43 10.509 53.812 11.175 53.37 12.014 C 52.928 12.853 52.719 13.805 52.738 14.864 C 52.719 15.923 52.928 16.875 53.37 17.714 C 53.812 18.558 54.43 19.219 55.219 19.706 C 56.008 20.194 56.897 20.438 57.89 20.438 L 57.89 20.442 Z" fill="black"/>
    <path d="M 68.341 29.916 L 68.341 6.698 L 71.625 6.698 L 71.625 10.439 L 71.121 10.158 C 71.249 9.534 71.606 8.939 72.195 8.367 C 72.784 7.795 73.507 7.327 74.357 6.966 C 75.208 6.605 76.092 6.422 76.995 6.422 C 78.492 6.422 79.818 6.788 80.977 7.514 C 82.137 8.241 83.05 9.239 83.724 10.505 C 84.399 11.77 84.737 13.228 84.737 14.869 C 84.737 16.509 84.404 17.939 83.743 19.214 C 83.078 20.494 82.17 21.502 81.011 22.238 C 79.851 22.973 78.544 23.344 77.095 23.344 C 76.125 23.344 75.189 23.152 74.281 22.767 C 73.374 22.383 72.608 21.891 71.976 21.286 C 71.344 20.686 70.955 20.063 70.807 19.416 L 71.629 18.98 L 71.629 29.916 L 68.341 29.916 Z M 76.558 20.381 C 77.527 20.381 78.392 20.142 79.148 19.664 C 79.908 19.186 80.507 18.53 80.949 17.7 C 81.391 16.87 81.614 15.923 81.614 14.864 C 81.614 13.805 81.4 12.863 80.968 12.042 C 80.535 11.222 79.941 10.575 79.181 10.097 C 78.421 9.619 77.546 9.38 76.558 9.38 C 75.569 9.38 74.695 9.614 73.934 10.083 C 73.174 10.552 72.575 11.198 72.133 12.033 C 71.691 12.863 71.468 13.809 71.468 14.869 C 71.468 15.928 71.691 16.875 72.133 17.705 C 72.575 18.534 73.174 19.191 73.934 19.669 C 74.695 20.147 75.564 20.386 76.558 20.386 L 76.558 20.381 Z" fill="black"/>
    <path d="M 94.612 23.372 C 92.906 23.372 91.395 23.016 90.078 22.298 C 88.762 21.581 87.731 20.602 86.98 19.355 C 86.234 18.108 85.858 16.673 85.858 15.056 C 85.858 13.767 86.067 12.595 86.49 11.536 C 86.913 10.477 87.498 9.558 88.244 8.78 C 88.99 8.002 89.888 7.397 90.929 6.97 C 91.97 6.544 93.106 6.333 94.327 6.333 C 95.401 6.333 96.399 6.534 97.331 6.942 C 98.257 7.345 99.065 7.903 99.75 8.611 C 100.434 9.319 100.962 10.153 101.328 11.119 C 101.693 12.084 101.869 13.139 101.85 14.283 L 101.817 15.656 L 88.263 15.656 L 87.536 13.102 L 99.004 13.102 L 98.528 13.631 L 98.528 12.881 C 98.467 12.197 98.234 11.583 97.835 11.044 C 97.435 10.505 96.927 10.078 96.318 9.764 C 95.705 9.45 95.045 9.295 94.327 9.295 C 93.191 9.295 92.231 9.506 91.452 9.933 C 90.673 10.359 90.083 10.983 89.684 11.803 C 89.285 12.623 89.085 13.636 89.085 14.841 C 89.085 16.045 89.328 16.973 89.812 17.817 C 90.297 18.656 90.981 19.308 91.865 19.767 C 92.749 20.227 93.771 20.452 94.931 20.452 C 95.753 20.452 96.513 20.316 97.221 20.048 C 97.925 19.777 98.69 19.289 99.512 18.586 L 101.156 20.859 C 100.653 21.356 100.035 21.792 99.308 22.167 C 98.581 22.542 97.811 22.838 97.003 23.053 C 96.19 23.273 95.396 23.381 94.617 23.381 L 94.612 23.372 Z" fill="black"/>
    <path d="M 103.932 23.063 L 103.932 0 L 107.187 0 L 107.187 23.063 L 103.932 23.063 Z" fill="black"/>
    <path d="M 110.191 23.063 L 110.191 0 L 113.446 0 L 113.446 23.063 L 110.191 23.063 Z" fill="black"/>
    <path d="M 124.263 23.372 C 122.557 23.372 121.046 23.016 119.729 22.298 C 118.413 21.581 117.381 20.602 116.631 19.355 C 115.884 18.108 115.509 16.673 115.509 15.056 C 115.509 13.767 115.718 12.595 116.141 11.536 C 116.564 10.477 117.149 9.558 117.895 8.78 C 118.641 8.002 119.539 7.397 120.58 6.97 C 121.621 6.544 122.756 6.333 123.978 6.333 C 125.052 6.333 126.05 6.534 126.981 6.942 C 127.908 7.345 128.716 7.903 129.4 8.611 C 130.085 9.319 130.612 10.153 130.978 11.119 C 131.344 12.084 131.52 13.139 131.501 14.283 L 131.468 15.656 L 117.914 15.656 L 117.187 13.102 L 128.654 13.102 L 128.179 13.631 L 128.179 12.881 C 128.117 12.197 127.884 11.583 127.485 11.044 C 127.086 10.505 126.577 10.078 125.969 9.764 C 125.356 9.45 124.695 9.295 123.978 9.295 C 122.842 9.295 121.882 9.506 121.103 9.933 C 120.323 10.359 119.734 10.983 119.335 11.803 C 118.935 12.623 118.736 13.636 118.736 14.841 C 118.736 16.045 118.978 16.973 119.463 17.817 C 119.948 18.656 120.632 19.308 121.516 19.767 C 122.4 20.227 123.422 20.452 124.581 20.452 C 125.404 20.452 126.164 20.316 126.872 20.048 C 127.575 19.777 128.341 19.289 129.163 18.586 L 130.807 20.859 C 130.303 21.356 129.686 21.792 128.958 22.167 C 128.231 22.542 127.461 22.838 126.653 23.053 C 125.841 23.273 125.047 23.381 124.268 23.381 L 124.263 23.372 Z" fill="black"/>
    <path d="M 133.568 23.063 L 133.568 6.698 L 136.852 6.698 L 136.852 11.841 L 136.539 10.594 C 136.771 9.806 137.166 9.089 137.722 8.442 C 138.278 7.8 138.924 7.289 139.652 6.914 C 140.379 6.539 141.13 6.352 141.909 6.352 C 142.265 6.352 142.608 6.384 142.935 6.445 C 143.263 6.506 143.52 6.581 143.71 6.666 L 142.855 10.158 C 142.603 10.055 142.322 9.966 142.018 9.895 C 141.714 9.825 141.415 9.788 141.12 9.788 C 140.55 9.788 140.008 9.895 139.495 10.116 C 138.977 10.336 138.525 10.636 138.135 11.02 C 137.746 11.405 137.437 11.85 137.204 12.361 C 136.971 12.872 136.857 13.425 136.857 14.03 L 136.857 23.067 L 133.573 23.067 L 133.568 23.063 Z" fill="black"/>
  </g>
</svg>